<mxfile host="app.diagrams.net" agent="Mozilla/5.0 (Windows NT 10.0; Win64; x64) AppleWebKit/537.36 (KHTML, like Gecko) Chrome/128.0.0.0 Safari/537.36" version="24.7.12">
  <diagram name="1 oldal" id="cSpDznwRhysWlnd6BzBl">
    <mxGraphModel dx="1434" dy="780" grid="1" gridSize="10" guides="1" tooltips="1" connect="1" arrows="1" fold="1" page="1" pageScale="1" pageWidth="827" pageHeight="1169" math="0" shadow="0">
      <root>
        <mxCell id="0" />
        <mxCell id="1" parent="0" />
        <mxCell id="vWJmFwuDEyCROFqxxKgG-25" value="" style="edgeStyle=orthogonalEdgeStyle;rounded=0;orthogonalLoop=1;jettySize=auto;html=1;endArrow=none;endFill=0;" edge="1" parent="1" source="vWJmFwuDEyCROFqxxKgG-15" target="vWJmFwuDEyCROFqxxKgG-17">
          <mxGeometry relative="1" as="geometry" />
        </mxCell>
        <mxCell id="vWJmFwuDEyCROFqxxKgG-15" value="START" style="ellipse;whiteSpace=wrap;html=1;" vertex="1" parent="1">
          <mxGeometry x="354" y="140" width="120" height="80" as="geometry" />
        </mxCell>
        <mxCell id="vWJmFwuDEyCROFqxxKgG-26" value="" style="edgeStyle=orthogonalEdgeStyle;rounded=0;orthogonalLoop=1;jettySize=auto;html=1;endArrow=none;endFill=0;" edge="1" parent="1" source="vWJmFwuDEyCROFqxxKgG-17" target="vWJmFwuDEyCROFqxxKgG-19">
          <mxGeometry relative="1" as="geometry" />
        </mxCell>
        <mxCell id="vWJmFwuDEyCROFqxxKgG-17" value="Be: t[], n" style="shape=parallelogram;perimeter=parallelogramPerimeter;whiteSpace=wrap;html=1;fixedSize=1;" vertex="1" parent="1">
          <mxGeometry x="354" y="230" width="120" height="60" as="geometry" />
        </mxCell>
        <mxCell id="vWJmFwuDEyCROFqxxKgG-27" value="" style="edgeStyle=orthogonalEdgeStyle;rounded=0;orthogonalLoop=1;jettySize=auto;html=1;" edge="1" parent="1" source="vWJmFwuDEyCROFqxxKgG-19" target="vWJmFwuDEyCROFqxxKgG-21">
          <mxGeometry relative="1" as="geometry" />
        </mxCell>
        <mxCell id="vWJmFwuDEyCROFqxxKgG-19" value="i = 0" style="rounded=0;whiteSpace=wrap;html=1;" vertex="1" parent="1">
          <mxGeometry x="354" y="300" width="120" height="60" as="geometry" />
        </mxCell>
        <mxCell id="vWJmFwuDEyCROFqxxKgG-29" value="" style="edgeStyle=orthogonalEdgeStyle;rounded=0;orthogonalLoop=1;jettySize=auto;html=1;" edge="1" parent="1" source="vWJmFwuDEyCROFqxxKgG-20" target="vWJmFwuDEyCROFqxxKgG-22">
          <mxGeometry relative="1" as="geometry" />
        </mxCell>
        <mxCell id="vWJmFwuDEyCROFqxxKgG-20" value="j = i + 1" style="rounded=0;whiteSpace=wrap;html=1;" vertex="1" parent="1">
          <mxGeometry x="354" y="470" width="120" height="60" as="geometry" />
        </mxCell>
        <mxCell id="vWJmFwuDEyCROFqxxKgG-28" value="" style="edgeStyle=orthogonalEdgeStyle;rounded=0;orthogonalLoop=1;jettySize=auto;html=1;endArrow=none;endFill=0;" edge="1" parent="1" source="vWJmFwuDEyCROFqxxKgG-21" target="vWJmFwuDEyCROFqxxKgG-20">
          <mxGeometry relative="1" as="geometry" />
        </mxCell>
        <mxCell id="vWJmFwuDEyCROFqxxKgG-38" value="" style="edgeStyle=orthogonalEdgeStyle;rounded=0;orthogonalLoop=1;jettySize=auto;html=1;" edge="1" parent="1" source="vWJmFwuDEyCROFqxxKgG-21" target="vWJmFwuDEyCROFqxxKgG-31">
          <mxGeometry relative="1" as="geometry" />
        </mxCell>
        <mxCell id="vWJmFwuDEyCROFqxxKgG-21" value="Ha i = n-1" style="rhombus;whiteSpace=wrap;html=1;" vertex="1" parent="1">
          <mxGeometry x="374" y="380" width="80" height="80" as="geometry" />
        </mxCell>
        <mxCell id="vWJmFwuDEyCROFqxxKgG-30" value="" style="edgeStyle=orthogonalEdgeStyle;rounded=0;orthogonalLoop=1;jettySize=auto;html=1;" edge="1" parent="1" source="vWJmFwuDEyCROFqxxKgG-22" target="vWJmFwuDEyCROFqxxKgG-23">
          <mxGeometry relative="1" as="geometry" />
        </mxCell>
        <mxCell id="vWJmFwuDEyCROFqxxKgG-22" value="Ha j = n" style="rhombus;whiteSpace=wrap;html=1;" vertex="1" parent="1">
          <mxGeometry x="374" y="550" width="80" height="80" as="geometry" />
        </mxCell>
        <mxCell id="vWJmFwuDEyCROFqxxKgG-40" value="" style="edgeStyle=orthogonalEdgeStyle;rounded=0;orthogonalLoop=1;jettySize=auto;html=1;endArrow=none;endFill=0;" edge="1" parent="1" source="vWJmFwuDEyCROFqxxKgG-23" target="vWJmFwuDEyCROFqxxKgG-39">
          <mxGeometry relative="1" as="geometry" />
        </mxCell>
        <mxCell id="vWJmFwuDEyCROFqxxKgG-23" value="Ha t[i] &amp;gt; t[j]" style="rhombus;whiteSpace=wrap;html=1;" vertex="1" parent="1">
          <mxGeometry x="374" y="650" width="80" height="80" as="geometry" />
        </mxCell>
        <mxCell id="vWJmFwuDEyCROFqxxKgG-31" value="VÃ‰GE" style="ellipse;whiteSpace=wrap;html=1;" vertex="1" parent="1">
          <mxGeometry x="520" y="380" width="120" height="80" as="geometry" />
        </mxCell>
        <mxCell id="vWJmFwuDEyCROFqxxKgG-32" value="" style="endArrow=none;html=1;rounded=0;entryX=0;entryY=0.5;entryDx=0;entryDy=0;" edge="1" parent="1" target="vWJmFwuDEyCROFqxxKgG-22">
          <mxGeometry width="50" height="50" relative="1" as="geometry">
            <mxPoint x="250" y="590" as="sourcePoint" />
            <mxPoint x="370" y="680" as="targetPoint" />
          </mxGeometry>
        </mxCell>
        <mxCell id="vWJmFwuDEyCROFqxxKgG-34" value="i += 1" style="rounded=0;whiteSpace=wrap;html=1;" vertex="1" parent="1">
          <mxGeometry x="200" y="390" width="120" height="60" as="geometry" />
        </mxCell>
        <mxCell id="vWJmFwuDEyCROFqxxKgG-37" value="" style="endArrow=classic;html=1;rounded=0;entryX=0;entryY=0.5;entryDx=0;entryDy=0;exitX=1;exitY=0.5;exitDx=0;exitDy=0;" edge="1" parent="1" source="vWJmFwuDEyCROFqxxKgG-34" target="vWJmFwuDEyCROFqxxKgG-21">
          <mxGeometry width="50" height="50" relative="1" as="geometry">
            <mxPoint x="260" y="470" as="sourcePoint" />
            <mxPoint x="430" y="490" as="targetPoint" />
          </mxGeometry>
        </mxCell>
        <mxCell id="vWJmFwuDEyCROFqxxKgG-39" value="j += 1" style="rounded=0;whiteSpace=wrap;html=1;" vertex="1" parent="1">
          <mxGeometry x="540" y="560" width="120" height="60" as="geometry" />
        </mxCell>
        <mxCell id="vWJmFwuDEyCROFqxxKgG-41" value="" style="endArrow=classic;html=1;rounded=0;entryX=1;entryY=0.5;entryDx=0;entryDy=0;exitX=0;exitY=0.5;exitDx=0;exitDy=0;" edge="1" parent="1" source="vWJmFwuDEyCROFqxxKgG-39" target="vWJmFwuDEyCROFqxxKgG-22">
          <mxGeometry width="50" height="50" relative="1" as="geometry">
            <mxPoint x="600" y="680" as="sourcePoint" />
            <mxPoint x="430" y="590" as="targetPoint" />
          </mxGeometry>
        </mxCell>
        <mxCell id="vWJmFwuDEyCROFqxxKgG-43" value="tmp = t[i]&lt;div&gt;t[i] = t[j]&lt;/div&gt;&lt;div&gt;t[j] = t[i]&lt;/div&gt;" style="rounded=0;whiteSpace=wrap;html=1;" vertex="1" parent="1">
          <mxGeometry x="354" y="750" width="120" height="60" as="geometry" />
        </mxCell>
        <mxCell id="vWJmFwuDEyCROFqxxKgG-48" value="" style="endArrow=none;html=1;rounded=0;entryX=0.5;entryY=1;entryDx=0;entryDy=0;endFill=0;" edge="1" parent="1" target="vWJmFwuDEyCROFqxxKgG-39">
          <mxGeometry width="50" height="50" relative="1" as="geometry">
            <mxPoint x="600" y="780" as="sourcePoint" />
            <mxPoint x="650" y="1010" as="targetPoint" />
          </mxGeometry>
        </mxCell>
        <mxCell id="vWJmFwuDEyCROFqxxKgG-49" value="" style="endArrow=none;html=1;rounded=0;exitX=1;exitY=0.5;exitDx=0;exitDy=0;" edge="1" parent="1" source="vWJmFwuDEyCROFqxxKgG-43">
          <mxGeometry width="50" height="50" relative="1" as="geometry">
            <mxPoint x="380" y="740" as="sourcePoint" />
            <mxPoint x="600" y="780" as="targetPoint" />
          </mxGeometry>
        </mxCell>
        <mxCell id="vWJmFwuDEyCROFqxxKgG-50" value="" style="endArrow=none;html=1;rounded=0;exitX=0.5;exitY=1;exitDx=0;exitDy=0;entryX=0.5;entryY=0;entryDx=0;entryDy=0;" edge="1" parent="1" source="vWJmFwuDEyCROFqxxKgG-23" target="vWJmFwuDEyCROFqxxKgG-43">
          <mxGeometry width="50" height="50" relative="1" as="geometry">
            <mxPoint x="380" y="740" as="sourcePoint" />
            <mxPoint x="430" y="690" as="targetPoint" />
          </mxGeometry>
        </mxCell>
        <mxCell id="vWJmFwuDEyCROFqxxKgG-51" value="" style="endArrow=none;html=1;rounded=0;entryX=0.442;entryY=1.033;entryDx=0;entryDy=0;entryPerimeter=0;" edge="1" parent="1" target="vWJmFwuDEyCROFqxxKgG-34">
          <mxGeometry width="50" height="50" relative="1" as="geometry">
            <mxPoint x="253" y="590" as="sourcePoint" />
            <mxPoint x="430" y="690" as="targetPoint" />
          </mxGeometry>
        </mxCell>
      </root>
    </mxGraphModel>
  </diagram>
</mxfile>
